<svg xmlns="http://www.w3.org/2000/svg" xmlns:xlink="http://www.w3.org/1999/xlink">
	<defs>
		<symbol viewBox="0 0 24 24" id="email">
			<path fill-rule="evenodd" clip-rule="evenodd" d="M3.75 5.25L3 6V18L3.75 18.75H20.25L21 18V6L20.25 5.25H3.75ZM4.5 7.6955V17.25H19.5V7.69525L11.9999 14.5136L4.5 7.6955ZM18.3099 6.75H5.68986L11.9999 12.4864L18.3099 6.75Z"></path>
		</symbol>
		<symbol viewBox="0 0 24 24" id="lock">
			<path fill-rule="evenodd" clip-rule="evenodd" d="M9.75 8.25C9.75 7.00736 10.7574 6 12 6C13.2426 6 14.25 7.00736 14.25 8.25V9.75H9.75V8.25ZM8.25 9.75V8.25C8.25 6.17893 9.92893 4.5 12 4.5C14.0711 4.5 15.75 6.17893 15.75 8.25V9.75H17.25L18 10.5V18.75L17.25 19.5H6.75L6 18.75V10.5L6.75 9.75H8.25ZM7.5 18V11.25H16.5V18H7.5Z"></path>
		</symbol>
		<symbol viewBox="0 0 24 24" id="eye-show">
			<path fill-rule="evenodd" clip-rule="evenodd" d="M12.0001 5.25C9.22586 5.25 6.79699 6.91121 5.12801 8.44832C4.28012 9.22922 3.59626 10.0078 3.12442 10.5906C2.88804 10.8825 2.70368 11.1268 2.57736 11.2997C2.51417 11.3862 2.46542 11.4549 2.43187 11.5029C2.41509 11.5269 2.4021 11.5457 2.393 11.559L2.38227 11.5747L2.37911 11.5794L2.10547 12.0132L2.37809 12.4191L2.37911 12.4206L2.38227 12.4253L2.393 12.441C2.4021 12.4543 2.41509 12.4731 2.43187 12.4971C2.46542 12.5451 2.51417 12.6138 2.57736 12.7003C2.70368 12.8732 2.88804 13.1175 3.12442 13.4094C3.59626 13.9922 4.28012 14.7708 5.12801 15.5517C6.79699 17.0888 9.22586 18.75 12.0001 18.75C14.7743 18.75 17.2031 17.0888 18.8721 15.5517C19.72 14.7708 20.4039 13.9922 20.8757 13.4094C21.1121 13.1175 21.2964 12.8732 21.4228 12.7003C21.4859 12.6138 21.5347 12.5451 21.5682 12.4971C21.585 12.4731 21.598 12.4543 21.6071 12.441L21.6178 12.4253L21.621 12.4206L21.6224 12.4186L21.9035 12L21.622 11.5809L21.621 11.5794L21.6178 11.5747L21.6071 11.559C21.598 11.5457 21.585 11.5269 21.5682 11.5029C21.5347 11.4549 21.4859 11.3862 21.4228 11.2997C21.2964 11.1268 21.1121 10.8825 20.8757 10.5906C20.4039 10.0078 19.72 9.22922 18.8721 8.44832C17.2031 6.91121 14.7743 5.25 12.0001 5.25ZM4.29022 12.4656C4.14684 12.2885 4.02478 12.1311 3.92575 12C4.02478 11.8689 4.14684 11.7115 4.29022 11.5344C4.72924 10.9922 5.36339 10.2708 6.14419 9.55168C7.73256 8.08879 9.80369 6.75 12.0001 6.75C14.1964 6.75 16.2676 8.08879 17.8559 9.55168C18.6367 10.2708 19.2709 10.9922 19.7099 11.5344C19.8533 11.7115 19.9753 11.8689 20.0744 12C19.9753 12.1311 19.8533 12.2885 19.7099 12.4656C19.2709 13.0078 18.6367 13.7292 17.8559 14.4483C16.2676 15.9112 14.1964 17.25 12.0001 17.25C9.80369 17.25 7.73256 15.9112 6.14419 14.4483C5.36339 13.7292 4.72924 13.0078 4.29022 12.4656ZM14.25 12C14.25 13.2426 13.2427 14.25 12 14.25C10.7574 14.25 9.75005 13.2426 9.75005 12C9.75005 10.7574 10.7574 9.75 12 9.75C13.2427 9.75 14.25 10.7574 14.25 12ZM15.75 12C15.75 14.0711 14.0711 15.75 12 15.75C9.92898 15.75 8.25005 14.0711 8.25005 12C8.25005 9.92893 9.92898 8.25 12 8.25C14.0711 8.25 15.75 9.92893 15.75 12Z"></path>
		</symbol>
		<symbol viewBox="0 0 24 24" id="eye-close">
			<path fill-rule="evenodd" clip-rule="evenodd" d="M15.5778 13.6334C16.2396 12.1831 15.9738 10.4133 14.7803 9.21976C13.5868 8.02628 11.817 7.76042 10.3667 8.4222L11.5537 9.60918C12.315 9.46778 13.1307 9.69153 13.7196 10.2804C14.3085 10.8693 14.5323 11.6851 14.3909 12.4464L15.5778 13.6334Z"></path>
			<path fill-rule="evenodd" clip-rule="evenodd" d="M5.86339 7.80781C5.60443 8.02054 5.35893 8.23562 5.12798 8.44832C4.28009 9.22922 3.59623 10.0078 3.1244 10.5906C2.88801 10.8825 2.70365 11.1268 2.57733 11.2997C2.51414 11.3862 2.46539 11.4549 2.43184 11.5029C2.41506 11.5269 2.40207 11.5457 2.39297 11.559L2.38224 11.5747L2.37908 11.5794L2.37806 11.5809L2.09656 12L2.37741 12.4181L2.37806 12.4191L2.37908 12.4206L2.38224 12.4253L2.39297 12.441C2.40207 12.4543 2.41506 12.4731 2.43184 12.4971C2.46539 12.5451 2.51414 12.6138 2.57733 12.7003C2.70365 12.8732 2.88801 13.1175 3.1244 13.4094C3.59623 13.9922 4.28009 14.7708 5.12798 15.5517C6.79696 17.0888 9.22583 18.75 12 18.75C13.3694 18.75 14.6547 18.3452 15.806 17.7504L14.6832 16.6277C13.8289 17.0123 12.9256 17.25 12 17.25C9.80366 17.25 7.73254 15.9112 6.14416 14.4483C5.36337 13.7292 4.72921 13.0078 4.29019 12.4656C4.14681 12.2885 4.02475 12.1311 3.92572 12C4.02475 11.8689 4.14681 11.7115 4.29019 11.5344C4.72921 10.9922 5.36337 10.2708 6.14416 9.55168C6.39447 9.32114 6.65677 9.09369 6.92965 8.87408L5.86339 7.80781ZM17.0705 15.1258C17.3434 14.9063 17.6056 14.6788 17.8559 14.4483C18.6367 13.7292 19.2708 13.0078 19.7099 12.4656C19.8532 12.2885 19.9753 12.1311 20.0743 12C19.9753 11.8689 19.8532 11.7115 19.7099 11.5344C19.2708 10.9922 18.6367 10.2708 17.8559 9.55168C16.2675 8.08879 14.1964 6.75 12 6.75C11.0745 6.75 10.1712 6.98772 9.31694 7.37228L8.1942 6.24954C9.34544 5.65475 10.6307 5.25 12 5.25C14.7742 5.25 17.2031 6.91121 18.8721 8.44832C19.72 9.22922 20.4038 10.0078 20.8757 10.5906C21.112 10.8825 21.2964 11.1268 21.4227 11.2997C21.4859 11.3862 21.5347 11.4549 21.5682 11.5029C21.585 11.5269 21.598 11.5457 21.6071 11.559L21.6178 11.5747L21.621 11.5794L21.622 11.5809L21.9035 12L21.6224 12.4186L21.621 12.4206L21.6178 12.4253L21.6071 12.441C21.598 12.4543 21.585 12.4731 21.5682 12.4971C21.5347 12.5451 21.4859 12.6138 21.4227 12.7003C21.2964 12.8732 21.112 13.1175 20.8757 13.4094C20.4038 13.9922 19.72 14.7708 18.8721 15.5517C18.6412 15.7644 18.3957 15.9794 18.1368 16.1921L17.0705 15.1258Z" fill="#000000"></path> <path fill-rule="evenodd" clip-rule="evenodd" d="M18.75 19.8107L3.75 4.81066L4.81066 3.75L19.8107 18.75L18.75 19.8107Z"></path>
		</symbol>
		<symbol viewBox="0 0 50 50" id="search">
			<path
				d="M 21 3 C 11.621094 3 4 10.621094 4 20 C 4 29.378906 11.621094 37 21 37 C 24.710938 37 28.140625 35.804688 30.9375 33.78125 L 44.09375 46.90625 L 46.90625 44.09375 L 33.90625 31.0625 C 36.460938 28.085938 38 24.222656 38 20 C 38 10.621094 30.378906 3 21 3 Z M 21 5 C 29.296875 5 36 11.703125 36 20 C 36 28.296875 29.296875 35 21 35 C 12.703125 35 6 28.296875 6 20 C 6 11.703125 12.703125 5 21 5 Z" />
		</symbol>
		<symbol viewBox="0 0 56 56" id="cart">
			<path d="M .9532 6.7188 C .9532 7.6797 1.7501 8.5000 2.6876 8.5000 L 10.6094 8.5000 L 14.3594 34.2344 C 14.8516 37.5625 16.6094 39.6485 20.0079 39.6485 L 47.3596 39.6485 C 48.2735 39.6485 49.0703 38.8985 49.0703 37.8907 C 49.0703 36.8829 48.2735 36.1328 47.3596 36.1328 L 20.4063 36.1328 C 19.0704 36.1328 18.2501 35.1953 18.0391 33.7656 L 17.6641 31.3047 L 47.4062 31.3047 C 50.8281 31.3047 52.5859 29.1953 53.0783 25.8438 L 54.9532 13.4453 C 55.0003 13.1407 55.0468 12.7656 55.0468 12.5547 C 55.0468 11.4297 54.2030 10.6563 52.9142 10.6563 L 14.6641 10.6563 L 14.1954 7.6797 C 13.9610 5.8750 13.3048 4.9609 10.9141 4.9609 L 2.6876 4.9609 C 1.7501 4.9609 .9532 5.7813 .9532 6.7188 Z M 18.0391 47.2422 C 18.0391 49.375 19.7266 51.0391 21.8594 51.0391 C 23.9688 51.0391 25.6563 49.375 25.6563 47.2422 C 25.6563 45.1328 23.9688 43.4453 21.8594 43.4453 C 19.7266 43.4453 18.0391 45.1328 18.0391 47.2422 Z M 39.9532 47.2422 C 39.9532 49.375 41.6641 51.0391 43.7735 51.0391 C 45.9062 51.0391 47.5939 49.375 47.5939 47.2422 C 47.5939 45.1328 45.9062 43.4453 43.7735 43.4453 C 41.6641 43.4453 39.9532 45.1328 39.9532 47.2422 Z"/>
		</symbol>
		<symbol viewBox="0 0 20 20" id="cross">
			<path d="M19 5L5 19M5.00001 5L19 19" stroke-width="1.5" stroke-linecap="round" stroke-linejoin="round" />
		</symbol>
		<symbol viewBox="0 0 24 24" id="chevron-down">
			<path d="M7 10L12 15L17 10" fill="none" stroke-linecap="round" stroke-linejoin="round" />
		</symbol>
		<symbol viewBox="0 0 24 24" id="phone">
			<path fillRule="evenodd" d="M1.5 4.5a3 3 0 013-3h1.372c.86 0 1.61.586 1.819 1.42l1.105 4.423a1.875 1.875 0 01-.694 1.955l-1.293.97c-.135.101-.164.249-.126.352a11.285 11.285 0 006.697 6.697c.103.038.25.009.352-.126l.97-1.293a1.875 1.875 0 011.955-.694l4.423 1.105c.834.209 1.42.959 1.42 1.82V19.5a3 3 0 01-3 3h-2.25C8.552 22.5 1.5 15.448 1.5 6.75V4.5z" clipRule="evenodd" />
		</symbol>
		<symbol viewBox="0 0 24 24" id="mail">
			<path d="M1.5 8.67v8.58a3 3 0 003 3h15a3 3 0 003-3V8.67l-8.928 5.493a3 3 0 01-3.144 0L1.5 8.67z" />
			<path d="M22.5 6.908V6.75a3 3 0 00-3-3h-15a3 3 0 00-3 3v.158l9.714 5.978a1.5 1.5 0 001.572 0L22.5 6.908z" />
		</symbol>
		<symbol viewBox="0 0 24 24" id="send">
			<path strokeLinecap="round" strokeLinejoin="round" d="M6 12L3.269 3.126A59.768 59.768 0 0121.485 12 59.77 59.77 0 013.27 20.876L5.999 12zm0 0h7.5" />
		</symbol>
		<symbol viewBox="0 0 24 24" id="right-arrow">
			<path d="M6 12H18M18 12L13 7M18 12L13 17" />
		</symbol>
		<symbol viewBox="0 0 24 24" id="share">
			<path d="M20 13L20 18C20 19.1046 19.1046 20 18 20L6 20C4.89543 20 4 19.1046 4 18L4 13" stroke-linecap="round" stroke-linejoin="round"></path>
			<path d="M16 8L12 4M12 4L8 8M12 4L12 16" stroke-linecap="round" stroke-linejoin="round"></path>
		</symbol>
		<symbol viewBox="0 0 16 16" id="copy">
			<path d="M13.49 3 10.74.37A1.22 1.22 0 0 0 9.86 0h-4a1.25 1.25 0 0 0-1.22 1.25v11a1.25 1.25 0 0 0 1.25 1.25h6.72a1.25 1.25 0 0 0 1.25-1.25V3.88a1.22 1.22 0 0 0-.37-.88zm-.88 9.25H5.89v-11h2.72v2.63a1.25 1.25 0 0 0 1.25 1.25h2.75zm0-8.37H9.86V1.25l2.75 2.63z"></path>
			<path d="M10.11 14.75H3.39v-11H4V2.5h-.61a1.25 1.25 0 0 0-1.25 1.25v11A1.25 1.25 0 0 0 3.39 16h6.72a1.25 1.25 0 0 0 1.25-1.25v-.63h-1.25z"></path>
		</symbol>
		<symbol viewBox="0 0 24 24" id="minus">
			<path d="M6 12L18 12" stroke="#000000" stroke-width="2" stroke-linecap="round" stroke-linejoin="round"></path>
		</symbol>
		<symbol viewBox="0 0 24 24" id="plus">
			<path d="M4 12H20M12 4V20" stroke="#000000" stroke-width="2" stroke-linecap="round" stroke-linejoin="round"></path>
		</symbol>
		<symbol viewBox="0 0 24 24" id="checkmark">
			<path d="M22.7048 4.95406C22.3143 4.56353 21.6811 4.56353 21.2906 4.95406L8.72696 17.5177C8.33643 17.9082 7.70327 17.9082 7.31274 17.5177L2.714 12.919C2.32348 12.5284 1.69031 12.5284 1.29979 12.919C0.909266 13.3095 0.909265 13.9427 1.29979 14.3332L5.90392 18.9289C7.07575 20.0986 8.97367 20.0978 10.1445 18.9271L22.7048 6.36827C23.0953 5.97775 23.0953 5.34458 22.7048 4.95406Z"></path>
		</symbol>
		<symbol viewBox="0 0 24 24" id="trash">
			<path fill-rule="evenodd" clip-rule="evenodd" d="M10.3094 2.25002H13.6908C13.9072 2.24988 14.0957 2.24976 14.2737 2.27819C14.977 2.39049 15.5856 2.82915 15.9146 3.46084C15.9978 3.62073 16.0573 3.79961 16.1256 4.00494L16.2373 4.33984C16.2562 4.39653 16.2616 4.41258 16.2661 4.42522C16.4413 4.90933 16.8953 5.23659 17.4099 5.24964C17.4235 5.24998 17.44 5.25004 17.5001 5.25004H20.5001C20.9143 5.25004 21.2501 5.58582 21.2501 6.00004C21.2501 6.41425 20.9143 6.75004 20.5001 6.75004H3.5C3.08579 6.75004 2.75 6.41425 2.75 6.00004C2.75 5.58582 3.08579 5.25004 3.5 5.25004H6.50008C6.56013 5.25004 6.5767 5.24998 6.59023 5.24964C7.10488 5.23659 7.55891 4.90936 7.73402 4.42524C7.73863 4.41251 7.74392 4.39681 7.76291 4.33984L7.87452 4.00496C7.94281 3.79964 8.00233 3.62073 8.08559 3.46084C8.41453 2.82915 9.02313 2.39049 9.72643 2.27819C9.90445 2.24976 10.093 2.24988 10.3094 2.25002ZM9.00815 5.25004C9.05966 5.14902 9.10531 5.04404 9.14458 4.93548C9.1565 4.90251 9.1682 4.86742 9.18322 4.82234L9.28302 4.52292C9.37419 4.24941 9.39519 4.19363 9.41601 4.15364C9.52566 3.94307 9.72853 3.79686 9.96296 3.75942C10.0075 3.75231 10.067 3.75004 10.3553 3.75004H13.6448C13.9331 3.75004 13.9927 3.75231 14.0372 3.75942C14.2716 3.79686 14.4745 3.94307 14.5842 4.15364C14.605 4.19363 14.626 4.2494 14.7171 4.52292L14.8169 4.82216L14.8556 4.9355C14.8949 5.04405 14.9405 5.14902 14.992 5.25004H9.00815Z"></path>
			<path d="M5.91509 8.45015C5.88754 8.03685 5.53016 7.72415 5.11686 7.7517C4.70357 7.77925 4.39086 8.13663 4.41841 8.54993L4.88186 15.5017C4.96736 16.7844 5.03642 17.8205 5.19839 18.6336C5.36679 19.4789 5.65321 20.185 6.2448 20.7385C6.8364 21.2919 7.55995 21.5308 8.4146 21.6425C9.23662 21.7501 10.275 21.7501 11.5606 21.75H12.4395C13.7251 21.7501 14.7635 21.7501 15.5856 21.6425C16.4402 21.5308 17.1638 21.2919 17.7554 20.7385C18.347 20.185 18.6334 19.4789 18.8018 18.6336C18.9638 17.8206 19.0328 16.7844 19.1183 15.5017L19.5818 8.54993C19.6093 8.13663 19.2966 7.77925 18.8833 7.7517C18.47 7.72415 18.1126 8.03685 18.0851 8.45015L17.6251 15.3493C17.5353 16.6971 17.4713 17.6349 17.3307 18.3406C17.1943 19.025 17.004 19.3873 16.7306 19.6431C16.4572 19.8989 16.083 20.0647 15.391 20.1552C14.6776 20.2485 13.7376 20.25 12.3868 20.25H11.6134C10.2626 20.25 9.32255 20.2485 8.60915 20.1552C7.91715 20.0647 7.54299 19.8989 7.26958 19.6431C6.99617 19.3873 6.80583 19.025 6.66948 18.3406C6.52892 17.6349 6.46489 16.6971 6.37503 15.3493L5.91509 8.45015Z"></path>
			<path d="M9.42546 10.2538C9.83762 10.2125 10.2052 10.5133 10.2464 10.9254L10.7464 15.9254C10.7876 16.3376 10.4869 16.7051 10.0747 16.7463C9.66256 16.7875 9.29503 16.4868 9.25381 16.0747L8.75381 11.0747C8.7126 10.6625 9.01331 10.295 9.42546 10.2538Z"></path>
			<path d="M14.5747 10.2538C14.9869 10.295 15.2876 10.6625 15.2464 11.0747L14.7464 16.0747C14.7052 16.4868 14.3376 16.7875 13.9255 16.7463C13.5133 16.7051 13.2126 16.3376 13.2538 15.9254L13.7538 10.9254C13.795 10.5133 14.1626 10.2125 14.5747 10.2538Z"></path>
		</symbol>
		<symbol viewBox="0 0 24 24" id="page">
			<path d="M4 21.4V2.6C4 2.26863 4.26863 2 4.6 2H16.2515C16.4106 2 16.5632 2.06321 16.6757 2.17574L19.8243 5.32426C19.9368 5.43679 20 5.5894 20 5.74853V21.4C20 21.7314 19.7314 22 19.4 22H4.6C4.26863 22 4 21.7314 4 21.4Z" stroke="#000000" stroke-width="1.5" stroke-linecap="round" stroke-linejoin="round"></path>
			<path d="M16 5.4V2.35355C16 2.15829 16.1583 2 16.3536 2C16.4473 2 16.5372 2.03725 16.6036 2.10355L19.8964 5.39645C19.9628 5.46275 20 5.55268 20 5.64645C20 5.84171 19.8417 6 19.6464 6H16.6C16.2686 6 16 5.73137 16 5.4Z" stroke="#000000" stroke-width="1.5" stroke-linecap="round" stroke-linejoin="round"></path>
			<path d="M8 10L16 10" stroke="#000000" stroke-width="1.5" stroke-linecap="round" stroke-linejoin="round"></path>
			<path d="M8 18L16 18" stroke="#000000" stroke-width="1.5" stroke-linecap="round" stroke-linejoin="round"></path>
			<path d="M8 14L12 14" stroke="#000000" stroke-width="1.5" stroke-linecap="round" stroke-linejoin="round"></path>
		</symbol>
		<symbol viewBox="0 0 56 56" id="addToCart">
			<path d="M 45.4157 28.7296 C 51.1548 28.7296 56 23.9261 56 18.1659 C 56 12.3642 51.2174 7.6022 45.4157 7.6022 C 39.6349 7.6022 34.8519 12.3642 34.8519 18.1659 C 34.8519 23.9677 39.6349 28.7296 45.4157 28.7296 Z M 16.9061 42.0175 L 41.1736 42.0175 C 41.9844 42.0175 42.6914 41.3520 42.6914 40.4579 C 42.6914 39.5637 41.9844 38.8982 41.1736 38.8982 L 17.2596 38.8982 C 16.0743 38.8982 15.3673 38.0665 15.1593 36.7980 L 14.8266 34.6146 L 41.2153 34.6146 C 43.3779 34.6146 44.7918 33.6788 45.5196 32.0152 L 45.6861 31.5785 C 37.9919 31.5577 32.0031 25.6312 32.0031 18.1659 C 32.0031 17.5421 32.0446 16.9182 32.1278 16.2944 L 12.1649 16.2944 L 11.7698 13.6535 C 11.5203 12.0523 10.9796 11.2413 8.8586 11.2413 L 1.5388 11.2413 C .7070 11.2413 0 11.9691 0 12.8009 C 0 13.6535 .7070 14.3813 1.5388 14.3813 L 8.5674 14.3813 L 11.8946 37.2139 C 12.3312 40.1668 13.8909 42.0175 16.9061 42.0175 Z M 45.4366 25.0282 C 44.7088 25.0282 44.0640 24.5291 44.0640 23.7389 L 44.0640 19.4344 L 40.0923 19.4344 C 39.3853 19.4344 38.8236 18.8521 38.8236 18.1659 C 38.8236 17.4589 39.3853 16.8767 40.0923 16.8767 L 44.0640 16.8767 L 44.0640 12.5721 C 44.0640 11.7820 44.7088 11.3037 45.4366 11.3037 C 46.1644 11.3037 46.7879 11.7820 46.7879 12.5721 L 46.7879 16.8767 L 50.7600 16.8767 C 51.4670 16.8767 52.0492 17.4589 52.0492 18.1659 C 52.0492 18.8521 51.4670 19.4344 50.7600 19.4344 L 46.7879 19.4344 L 46.7879 23.7389 C 46.7879 24.5291 46.1644 25.0282 45.4366 25.0282 Z M 15.1801 48.7549 C 15.1801 50.6473 16.6565 52.1237 18.5489 52.1237 C 20.4204 52.1237 21.9176 50.6473 21.9176 48.7549 C 21.9176 46.8834 20.4204 45.3862 18.5489 45.3862 C 16.6565 45.3862 15.1801 46.8834 15.1801 48.7549 Z M 34.6024 48.7549 C 34.6024 50.6473 36.1204 52.1237 38.0127 52.1237 C 39.8844 52.1237 41.3814 50.6473 41.3814 48.7549 C 41.3814 46.8834 39.8844 45.3862 38.0127 45.3862 C 36.1204 45.3862 34.6024 46.8834 34.6024 48.7549 Z"></path>
		</symbol>
		<symbol viewBox="0 0 512 512" id="free-delivery">
			<path d="M476.158,286.938l-13.259-53.035c3.625-0.77,6.345-3.986,6.345-7.839v-8.551c0-18.566-15.105-33.67-33.67-33.67h-60.392
				v-17.637c0-9.136-7.432-16.568-16.568-16.568H246.32l68.24-27.296c4.111-1.644,6.11-6.31,4.466-10.421
				c-1.644-4.11-6.307-6.111-10.421-4.466l-55.874,22.349c17.026-10.924,33.871-22.947,40.284-31.355
				c12.485-16.369,9.323-39.843-7.046-52.328c-16.369-12.486-39.843-9.323-52.328,7.046c-9.122,11.962-21.158,45.573-28.948,69.258
				c-7.79-23.683-19.826-57.296-28.948-69.258c-12.484-16.369-35.959-19.53-52.328-7.046c-16.369,12.484-19.53,35.958-7.046,52.328
				c6.413,8.409,23.257,20.431,40.284,31.355l-55.874-22.349c-4.113-1.647-8.777,0.355-10.421,4.466
				c-1.645,4.111,0.355,8.777,4.466,10.421l68.24,27.296H50.772c-9.136,0-16.568,7.432-16.568,16.568v145.37
				c0,4.427,3.589,8.017,8.017,8.017c4.427,0,8.017-3.589,8.017-8.017v-145.37c0-0.295,0.239-0.534,0.534-0.534h307.841
				c0.295,0,0.534,0.239,0.534,0.534v145.372c0,4.427,3.589,8.017,8.017,8.017c4.427,0,8.017-3.589,8.017-8.017v-9.088h94.566
				c0.009,0,0.016,0.002,0.025,0.002s0.017-0.001,0.026-0.001c11.636,0.009,21.516,7.647,24.908,18.171h-24.928
				c-4.427,0-8.017,3.589-8.017,8.017v17.102c0,13.851,11.268,25.119,25.119,25.119h9.086v35.273h-20.962
				c-6.886-19.882-25.787-34.205-47.982-34.205s-41.097,14.322-47.982,34.205h-3.86V345.78c0-4.427-3.589-8.017-8.017-8.017
				c-4.427,0-8.017,3.589-8.017,8.017v60.392H192.817c-6.886-19.882-25.787-34.205-47.982-34.205s-41.097,14.322-47.982,34.205
				H50.772c-0.295,0-0.534-0.239-0.534-0.534v-17.637h34.739c4.427,0,8.017-3.589,8.017-8.017s-3.589-8.017-8.017-8.017H8.017
				c-4.427,0-8.017,3.589-8.017,8.017s3.589,8.017,8.017,8.017h26.188v17.637c0,9.136,7.432,16.568,16.568,16.568h43.304
				c-0.002,0.178-0.014,0.355-0.014,0.534c0,27.995,22.777,50.772,50.772,50.772s50.772-22.777,50.772-50.772
				c0-0.18-0.012-0.356-0.014-0.534h180.67c-0.002,0.178-0.014,0.355-0.014,0.534c0,27.995,22.777,50.772,50.772,50.772
				c27.995,0,50.772-22.777,50.772-50.772c0-0.18-0.012-0.356-0.014-0.534h26.203c4.427,0,8.017-3.589,8.017-8.017v-85.511
				C512,307.564,496.423,290.022,476.158,286.938z M172.9,121.059c-31.623-19.651-41.003-28.692-43.78-32.334
				c-7.123-9.339-5.319-22.732,4.021-29.855c3.85-2.936,8.388-4.355,12.893-4.355c6.422,0,12.776,2.886,16.963,8.376
				c7.755,10.168,19.9,44.391,27.918,69.052C185.504,128.757,179.284,125.028,172.9,121.059z M218.473,131.942
				c8.018-24.66,20.163-58.882,27.917-69.052c7.123-9.339,20.516-11.142,29.855-4.02c9.34,7.123,11.143,20.516,4.021,29.855
				c-2.777,3.641-12.157,12.683-43.778,32.333C230.105,125.026,223.885,128.756,218.473,131.942z M375.182,199.875h60.392
				c9.725,0,17.637,7.912,17.637,17.637v0.534h-78.029V199.875z M375.182,286.456V234.08h71.235l13.094,52.376H375.182z
				M144.835,457.479c-19.155,0-34.739-15.584-34.739-34.739s15.584-34.739,34.739-34.739c19.155,0,34.739,15.584,34.739,34.739
				S163.99,457.479,144.835,457.479z M427.023,457.479c-19.155,0-34.739-15.584-34.739-34.739s15.584-34.739,34.739-34.739
				c19.155,0,34.739,15.584,34.739,34.739S446.178,457.479,427.023,457.479z M495.967,354.865h-9.086
				c-5.01,0-9.086-4.076-9.086-9.086v-9.086h18.171V354.865z"/>
			<path d="M144.835,406.172c-9.136,0-16.568,7.432-16.568,16.568s7.432,16.568,16.568,16.568c9.136,0,16.568-7.432,16.568-16.568 S153.971,406.172,144.835,406.172z"/>
			<path d="M427.023,406.172c-9.136,0-16.568,7.432-16.568,16.568s7.432,16.568,16.568,16.568c9.136,0,16.568-7.432,16.568-16.568 S436.159,406.172,427.023,406.172z"/>
			<path d="M332.96,371.967H213.244c-4.427,0-8.017,3.589-8.017,8.017s3.589,8.017,8.017,8.017H332.96c4.427,0,8.017-3.589,8.017-8.017S337.388,371.967,332.96,371.967z"/>
			<path d="M127.733,337.763H25.119c-4.427,0-8.017,3.589-8.017,8.017s3.589,8.017,8.017,8.017h102.614c4.427,0,8.017-3.589,8.017-8.017S132.16,337.763,127.733,337.763z"/>
			<path d="M127.733,218.046H93.528c-4.427,0-8.017,3.589-8.017,8.017v68.409c0,4.427,3.589,8.017,8.017,8.017s8.017-3.589,8.017-8.017v-26.188h17.637c4.427,0,8.017-3.589,8.017-8.017s-3.589-8.017-8.017-8.017h-17.637V234.08h26.188c4.427,0,8.017-3.589,8.017-8.017C135.749,221.636,132.16,218.046,127.733,218.046z"/>
			<path d="M190.822,272.043c8.023-5.255,13.337-14.317,13.337-24.602c0-16.209-13.186-29.395-29.395-29.395h-21.378c-4.427,0-8.017,3.589-8.017,8.017v68.409c0,4.427,3.589,8.017,8.017,8.017s8.017-3.589,8.017-8.017v-17.637h13.346l14.722,22.083c1.545,2.317,4.086,3.571,6.677,3.571c1.529,0,3.073-0.436,4.439-1.348c3.685-2.455,4.68-7.433,2.223-11.116L190.822,272.043zM174.764,260.802h-13.361V234.08h13.361c7.368,0,13.361,5.993,13.361,13.361C188.125,254.809,182.132,260.802,174.764,260.802z"/>
			<path d="M256,286.456h-26.188v-18.198c0.177,0.012,0.354,0.027,0.534,0.027h17.102c4.427,0,8.017-3.589,8.017-8.017s-3.589-8.017-8.017-8.017h-17.102c-0.181,0-0.357,0.015-0.534,0.027V234.08H256c4.427,0,8.017-3.589,8.017-8.017c0-4.427-3.589-8.017-8.017-8.017h-34.205c-4.427,0-8.017,3.589-8.017,8.017v68.409c0,4.427,3.589,8.017,8.017,8.017H256c4.427,0,8.017-3.589,8.017-8.017S260.427,286.456,256,286.456z"/>
			<path d="M315.858,286.456H289.67v-18.171h9.086c4.427,0,8.017-3.589,8.017-8.017s-3.589-8.017-8.017-8.017h-9.086V234.08h26.188c4.427,0,8.017-3.589,8.017-8.017c0-4.427-3.589-8.017-8.017-8.017h-34.205c-4.427,0-8.017,3.589-8.017,8.017v68.409c0,4.427,3.589,8.017,8.017,8.017h34.205c4.427,0,8.017-3.589,8.017-8.017S320.285,286.456,315.858,286.456z"/>
		</symbol>
		<symbol viewBox="0 0 32 32" id="money-back">
			<path d="M16,0A16,16,0,0,0,4.08,26.66a13,13,0,0,0,1,1.06c.22.21.45.42.69.62s.59.46.88.66H6a1,1,0,0,0,0,2H9a1,1,0,0,0,1-1V27a1,1,0,0,0-2,0v.47c-.3-.21-.61-.43-.93-.68s-.39-.34-.57-.52-.63-.61-.93-.94A14,14,0,1,1,16,30a13.57,13.57,0,0,1-2.8-.28,1,1,0,1,0-.4,2A16,16,0,1,0,16,0Z"/>
			<path d="M26,16A10,10,0,1,0,16,26,10,10,0,0,0,26,16ZM8,16a8,8,0,1,1,8,8A8,8,0,0,1,8,16Z"/>
			<path d="M17,21v-.18A3,3,0,0,0,16,15a1,1,0,0,1,0-2h2a1,1,0,0,0,0-2H17a1,1,0,0,0-2,0v.18A3,3,0,0,0,16,17a1,1,0,0,1,0,2H14a1,1,0,0,0,0,2h1a1,1,0,0,0,2,0Z"/>
		</symbol>
		<symbol viewBox="0 0 512 512" id="money-back2">
			<path d="M398.472,113.527C360.416,75.472,309.82,54.513,256,54.513s-104.417,20.958-142.473,59.015 C75.471,151.583,54.513,202.18,54.513,256s20.958,104.417,59.014,142.473c38.055,38.055,88.654,59.014,142.473,59.014 c53.819,0,104.417-20.958,142.473-59.014c38.055-38.055,59.014-88.654,59.014-142.473S436.527,151.583,398.472,113.527z M384.049,384.049c-34.203,34.203-79.678,53.04-128.049,53.04s-93.846-18.837-128.049-53.04 C93.748,349.846,74.911,304.371,74.911,256s18.837-93.846,53.04-128.049S207.629,74.911,256,74.911s93.846,18.837,128.049,53.04 c34.203,34.203,53.04,79.678,53.04,128.049S418.252,349.846,384.049,384.049z" />
			<path d="M334.362,323.72c18.096-23.507,19.762-50.965-5.409-76.135c-28.499-28.499-55.333-19.138-78.84-8.112l-51.59-51.59 c16.434-14.768,29.538-14.145,33.283-17.89c3.744-3.744,1.04-11.024-1.664-13.728c-6.864-6.864-28.707,4.576-44.307,18.93 l-6.032-6.032c-2.081-2.081-6.449-1.457-8.737,0.83c-2.705,2.705-2.912,6.657-0.831,8.738l6.448,6.448 c-16.85,19.346-28.291,47.428-2.081,73.638c26.626,26.626,52.421,13.314,77.175,1.456l60.533,60.533 c-26.418,25.172-47.427,13.314-52.42,18.307c-3.12,3.12-1.873,10.607,1.456,13.936c7.489,7.489,37.652,6.865,64.069-19.138 l7.489,7.489c2.08,2.08,6.032,1.873,8.737-0.832c2.288-2.288,2.911-6.656,0.831-8.736L334.362,323.72z M186.459,244.463 c-15.394-15.394-8.946-33.075,3.121-47.22l48.26,48.26C219.534,254.241,202.686,260.69,186.459,244.463z M320.839,311.445 l-56.79-56.79c17.682-7.279,34.74-10.607,52.837,7.49C332.28,277.539,333.112,294.596,320.839,311.445z" />
			<path d="M256,0c-4.125,0-8.29,0.099-12.381,0.295c-5.627,0.269-9.969,5.048-9.701,10.674c0.261,5.46,4.77,9.712,10.18,9.712 c0.163,0,0.328-0.004,0.495-0.012c3.768-0.179,7.605-0.27,11.407-0.27c5.632,0,10.199-4.567,10.199-10.199 C266.199,4.567,261.632,0,256,0z" />
			<path d="M491.196,154.752c-11.092-25.733-26.152-49.183-44.851-69.929h3.918c5.632,0,10.199-4.567,10.199-10.199 c0-5.632-4.567-10.199-10.199-10.199h-28.743c-5.632,0-10.199,4.567-10.199,10.199v28.743c0,5.632,4.567,10.199,10.199,10.199 c5.632,0,10.199-4.567,10.199-10.199v-4.311c38.727,43.211,59.884,98.333,59.884,156.944 c0,129.911-105.69,235.602-235.602,235.602S20.398,385.911,20.398,256c0-106.18,71.488-199.702,173.844-227.427 c5.437-1.473,8.65-7.075,7.178-12.511c-1.473-5.437-7.076-8.654-12.511-7.178C77.682,39.012,0,140.63,0,256 c0,68.381,26.628,132.667,74.982,181.019C123.333,485.372,187.619,512,256,512s132.667-26.628,181.019-74.981 C485.372,388.667,512,324.381,512,256C512,220.843,505,186.778,491.196,154.752z" />
		</symbol>
		<symbol viewBox="0 0 511 511" id="secure-payment">
			<path d="M471.5,28h-432C17.72,28,0,45.72,0,67.5v256C0,345.28,17.72,363,39.5,363h176c4.142,0,7.5-3.358,7.5-7.5
				s-3.358-7.5-7.5-7.5h-176C25.991,348,15,337.009,15,323.5v-256C15,53.991,25.991,43,39.5,43h432c13.509,0,24.5,10.991,24.5,24.5
				v256c0,4.142,3.358,7.5,7.5,7.5s7.5-3.358,7.5-7.5v-256C511,45.72,493.28,28,471.5,28z"/>
			<path d="M63.5,307h152c4.142,0,7.5-3.358,7.5-7.5s-3.358-7.5-7.5-7.5h-152c-4.142,0-7.5,3.358-7.5,7.5S59.358,307,63.5,307z"/>
			<path d="M151,155.5v-32c0-12.958-10.542-23.5-23.5-23.5h-48C66.542,100,56,110.542,56,123.5v32c0,12.958,10.542,23.5,23.5,23.5h48
				C140.458,179,151,168.458,151,155.5z M71,155.5V147h8.5c4.142,0,7.5-3.358,7.5-7.5s-3.358-7.5-7.5-7.5H71v-8.5
				c0-4.687,3.813-8.5,8.5-8.5H96v49H79.5C74.813,164,71,160.187,71,155.5z M127.5,164H111v-49h16.5c4.687,0,8.5,3.813,8.5,8.5v8.5
				h-8.5c-4.142,0-7.5,3.358-7.5,7.5s3.358,7.5,7.5,7.5h8.5v8.5C136,160.187,132.187,164,127.5,164z"/>
			<path d="M56,251.5c0,4.142,3.358,7.5,7.5,7.5s7.5-3.358,7.5-7.5v-16c0-4.142-3.358-7.5-7.5-7.5s-7.5,3.358-7.5,7.5V251.5z"/>
			<path d="M80,235.5v16c0,4.142,3.358,7.5,7.5,7.5s7.5-3.358,7.5-7.5v-16c0-4.142-3.358-7.5-7.5-7.5S80,231.358,80,235.5z"/>
			<path d="M104,235.5v16c0,4.142,3.358,7.5,7.5,7.5s7.5-3.358,7.5-7.5v-16c0-4.142-3.358-7.5-7.5-7.5S104,231.358,104,235.5z"/>
			<path d="M128,235.5v16c0,4.142,3.358,7.5,7.5,7.5s7.5-3.358,7.5-7.5v-16c0-4.142-3.358-7.5-7.5-7.5S128,231.358,128,235.5z"/>
			<path d="M175,251.5v-16c0-4.142-3.358-7.5-7.5-7.5s-7.5,3.358-7.5,7.5v16c0,4.142,3.358,7.5,7.5,7.5S175,255.642,175,251.5z"/>
			<path d="M199,251.5v-16c0-4.142-3.358-7.5-7.5-7.5s-7.5,3.358-7.5,7.5v16c0,4.142,3.358,7.5,7.5,7.5S199,255.642,199,251.5z"/>
			<path d="M215.5,228c-4.142,0-7.5,3.358-7.5,7.5v16c0,4.142,3.358,7.5,7.5,7.5s7.5-3.358,7.5-7.5v-16
				C223,231.358,219.642,228,215.5,228z"/>
			<path d="M247,251.5v-16c0-4.142-3.358-7.5-7.5-7.5s-7.5,3.358-7.5,7.5v16c0,4.142,3.358,7.5,7.5,7.5S247,255.642,247,251.5z"/>
			<path d="M415.5,179c21.78,0,39.5-17.72,39.5-39.5S437.28,100,415.5,100h-48c-21.78,0-39.5,17.72-39.5,39.5s17.72,39.5,39.5,39.5
				H415.5z M343,139.5c0-13.509,10.991-24.5,24.5-24.5h48c13.509,0,24.5,10.991,24.5,24.5S429.009,164,415.5,164h-48
				C353.991,164,343,153.009,343,139.5z"/>
			<path d="M473.781,274.948c-1.705-1.179-3.822-1.599-5.848-1.164c-6.816,1.47-13.691,2.216-20.434,2.216
				c-33.301,0-63.826-16.915-81.652-45.247c-1.373-2.182-3.77-3.506-6.348-3.506s-4.975,1.324-6.348,3.506
				C335.326,259.085,304.801,276,271.5,276c-6.742,0-13.617-0.746-20.434-2.216c-2.024-0.436-4.143-0.016-5.848,1.164
				c-1.705,1.179-2.846,3.012-3.151,5.062c-1.372,9.2-2.067,18.449-2.067,27.49c0,78.615,49.25,152.258,117.106,175.108
				c0.776,0.261,1.585,0.392,2.394,0.392s1.617-0.131,2.394-0.392C429.75,459.758,479,386.115,479,307.5
				c0-9.041-0.695-18.29-2.067-27.49C476.627,277.959,475.486,276.127,473.781,274.948z M285.252,407.035
				C265.744,377.584,255,342.235,255,307.5c0-5.801,0.313-11.699,0.932-17.616c5.206,0.742,10.417,1.116,15.568,1.116
				c30.881,0,59.683-12.584,80.5-34.458v208.044C326.04,453.367,302.616,433.248,285.252,407.035z M433.748,407.035
				c-17.364,26.213-40.787,46.332-66.748,57.552V256.542C387.817,278.416,416.619,291,447.5,291c5.151,0,10.362-0.375,15.568-1.116
				c0.619,5.917,0.932,11.815,0.932,17.616C464,342.235,453.256,377.584,433.748,407.035z"/>
		</symbol>
		<symbol viewBox="0 0 512 512" id="customer-service">
			<path d="M486.4,423.96c-50.93-27.008-89.996-42.152-124.772-47.958l3.599-4.948c1.707-1.707,2.56-4.267,1.707-6.827l-7.997-31.987
				c2.898-4.097,5.632-8.333,8.193-12.688c31.8-10.823,47.881-29.118,50.583-56.054c13.968-0.728,26.02-13.195,26.02-27.271v-64
				c0-14.012-11.147-26.429-25.75-27.26C416.104,95.671,394.368-1,256-1C117.629-1,95.895,95.675,94.016,144.97
				c-13.853,0.818-25.749,12.449-25.749,27.256v64c0,14.507,12.8,27.307,28.16,27.307h12.8c4.704,0,9.225-1.352,13.163-3.666
				c4.839,25.685,15.518,50.948,30.674,72.372l-7.997,31.987c0,1.707,0,4.267,1.707,6.827l3.599,4.948
				c-34.776,5.807-73.842,20.95-124.772,47.958C9.387,431.64,0,447.853,0,465.773v36.693C0,507.587,3.413,511,8.533,511h204.8h3.413
				h78.507h3.413h204.8c5.12,0,8.533-3.413,8.533-8.533v-36.693C512,448.707,501.76,432.493,486.4,423.96z M256.047,404.441
				l20.433,46.826h-41.245L256.047,404.441z M229.035,468.333h53.897l4.995,25.6h-64.013L229.035,468.333z M345.6,348.867
				l3.413,15.36l-8.717,11.969c-0.556,0.455-1.071,1.006-1.523,1.684l-35.495,49.147l-11.262,15.464l-23.005-51.761
				c28.058-3.422,53.044-17.722,73.077-38.212C343.272,351.324,344.444,350.111,345.6,348.867z M378.921,295.784
				c4.813-11.711,8.441-23.884,10.735-36.154c3.249,1.968,6.948,3.283,10.936,3.729C399.113,275.421,393.754,286.809,378.921,295.784
				z M425.813,171.373v64c0,5.12-4.267,10.24-10.24,10.24h-12.8c-5.12,0-10.24-4.267-10.24-10.24V229.4v-58.027
				c0-5.12,4.267-10.24,10.24-10.24h12.8C420.693,161.133,425.813,165.4,425.813,171.373z M256,16.067
				c52.597,0,141.118,17.17,144.924,128.992c-3.576,0.367-7.001,1.454-10.099,3.124C380.441,83.202,323.787,33.133,256,33.133
				c-67.778,0-124.426,50.055-134.821,115.022c-3.052-1.648-6.46-2.737-10.104-3.099C114.883,33.237,203.404,16.067,256,16.067z
				M118.613,235.373c0,5.12-4.267,10.24-10.24,10.24h-12.8c-5.12,0-10.24-4.267-10.24-10.24v-64c0-5.12,4.267-10.24,10.24-10.24
				h12.8c5.12,0,10.24,4.267,10.24,10.24V235.373z M136.533,169.667C136.533,103.96,190.293,50.2,256,50.2
				s119.467,53.76,119.467,119.467V229.4c0,28.232-7.35,54.079-19.266,75.887c-20.368,5.908-49.669,9.446-91.667,9.446
				c-5.12,0-8.533,3.413-8.533,8.533s3.413,8.533,8.533,8.533c30.745,0,56.458-1.888,77.515-5.835
				c-0.523,0.523-1.046,1.046-1.569,1.569c-4.293,5.724-8.824,10.943-13.558,15.649c-20.093,18.719-44.058,30.058-67.152,31.181
				c-1.162-0.499-2.465-0.75-3.77-0.75c-1.312,0-2.494,0.257-3.554,0.761c-14.136-0.648-28.603-5.129-42.316-12.793
				c-13.893-7.982-26.962-19.489-38.61-34.048c-0.853-0.853-1.707-1.707-2.56-2.56l-0.498-0.166
				c-19.164-25.134-31.929-58.199-31.929-95.407V169.667z M242.988,390.73l-23.005,51.761l-11.262-15.464l-35.495-49.147
				c-0.272-0.272-0.572-0.541-0.884-0.806l-9.356-12.847l3.413-15.36c1.155,1.244,2.327,2.456,3.509,3.649
				C189.942,373.006,214.93,387.307,242.988,390.73z M17.067,465.773c0-11.093,5.973-21.333,16.213-26.453
				c54.393-28.896,93.548-43.399,128.428-47.731l50.922,70.018l-6.465,32.326H17.067V465.773z M494.933,493.933H305.835
				l-6.465-32.326l51.474-70.777c34.757,5.245,74.615,19.737,127.877,47.636c10.24,5.973,16.213,16.213,16.213,27.307V493.933z"/>
		</symbol>
		<symbol viewBox="0 0 24 24" id="facebook">
			<path d="M22 12C22 6.47714 17.5229 1.99999 12 1.99999C6.47715 1.99999 2 6.47714 2 12C2 16.9913 5.65686 21.1283 10.4375 21.8785V14.8906H7.89844V12H10.4375V9.79687C10.4375 7.29062 11.9304 5.90624 14.2146 5.90624C15.3087 5.90624 16.4531 6.10155 16.4531 6.10155V8.56249H15.1921C13.9499 8.56249 13.5625 9.33333 13.5625 10.1242V12H16.3359L15.8926 14.8906H13.5625V21.8785C18.3431 21.1283 22 16.9913 22 12Z"/>
		</symbol>
		<symbol viewBox="0 0 24 24" id="instagram">
			<path fill-rule="evenodd" clip-rule="evenodd" d="M12 2C9.284 2 8.944 2.01133 7.87733 2.06C6.81267 2.10867 6.08533 2.278 5.44933 2.52533C4.78267 2.776 4.178 3.16933 3.678 3.67867C3.16948 4.17809 2.77591 4.78233 2.52467 5.44933C2.27867 6.08533 2.10867 6.81333 2.06 7.878C2.012 8.944 2 9.28333 2 12C2 14.7167 2.01133 15.056 2.06 16.1227C2.10867 17.1873 2.278 17.9147 2.52533 18.5507C2.776 19.2173 3.16933 19.822 3.67867 20.322C4.1781 20.8305 4.78234 21.2241 5.44933 21.4753C6.08533 21.722 6.81267 21.8913 7.87733 21.94C8.944 21.9887 9.284 22 12 22C14.716 22 15.056 21.9887 16.1227 21.94C17.1873 21.8913 17.9147 21.722 18.5507 21.4747C19.2173 21.224 19.822 20.8307 20.322 20.3213C20.8305 19.8219 21.2241 19.2177 21.4753 18.5507C21.722 17.9147 21.8913 17.1873 21.94 16.1227C21.9887 15.056 22 14.716 22 12C22 9.284 21.9887 8.944 21.94 7.87733C21.8913 6.81267 21.722 6.08533 21.4747 5.44933C21.2236 4.78204 20.83 4.17755 20.3213 3.678C19.8219 3.16948 19.2177 2.77591 18.5507 2.52467C17.9147 2.27867 17.1867 2.10867 16.122 2.06C15.056 2.012 14.7167 2 12 2ZM12 3.802C14.67 3.802 14.9867 3.812 16.0413 3.86C17.016 3.90467 17.5453 4.06667 17.898 4.20467C18.3647 4.38533 18.698 4.60267 19.048 4.952C19.398 5.302 19.6147 5.63533 19.7953 6.102C19.9327 6.45467 20.0953 6.984 20.14 7.95867C20.188 9.01333 20.198 9.33 20.198 12C20.198 14.67 20.188 14.9867 20.14 16.0413C20.0953 17.016 19.9333 17.5453 19.7953 17.898C19.6353 18.3324 19.3799 18.7253 19.048 19.048C18.7254 19.38 18.3324 19.6354 17.898 19.7953C17.5453 19.9327 17.016 20.0953 16.0413 20.14C14.9867 20.188 14.6707 20.198 12 20.198C9.32933 20.198 9.01333 20.188 7.95867 20.14C6.984 20.0953 6.45467 19.9333 6.102 19.7953C5.66764 19.6353 5.27467 19.3799 4.952 19.048C4.62012 18.7253 4.36475 18.3323 4.20467 17.898C4.06733 17.5453 3.90467 17.016 3.86 16.0413C3.812 14.9867 3.802 14.67 3.802 12C3.802 9.33 3.812 9.01333 3.86 7.95867C3.90467 6.984 4.06667 6.45467 4.20467 6.102C4.38533 5.63533 4.60267 5.302 4.952 4.952C5.27463 4.62003 5.66761 4.36465 6.102 4.20467C6.45467 4.06733 6.984 3.90467 7.95867 3.86C9.01333 3.812 9.33 3.802 12 3.802Z"/>
			<path fill-rule="evenodd" clip-rule="evenodd" d="M12 15.3367C11.5618 15.3367 11.128 15.2504 10.7231 15.0827C10.3183 14.915 9.95047 14.6692 9.64064 14.3594C9.3308 14.0495 9.08502 13.6817 8.91734 13.2769C8.74965 12.8721 8.66335 12.4382 8.66335 12C8.66335 11.5618 8.74965 11.1279 8.91734 10.7231C9.08502 10.3183 9.3308 9.95046 9.64064 9.64062C9.95047 9.33078 10.3183 9.08501 10.7231 8.91732C11.128 8.74964 11.5618 8.66333 12 8.66333C12.885 8.66333 13.7336 9.01487 14.3594 9.64062C14.9851 10.2664 15.3367 11.1151 15.3367 12C15.3367 12.8849 14.9851 13.7336 14.3594 14.3594C13.7336 14.9851 12.885 15.3367 12 15.3367ZM12 6.86C10.6368 6.86 9.32942 7.40153 8.36549 8.36547C7.40155 9.32941 6.86002 10.6368 6.86002 12C6.86002 13.3632 7.40155 14.6706 8.36549 15.6345C9.32942 16.5985 10.6368 17.14 12 17.14C13.3632 17.14 14.6706 16.5985 15.6345 15.6345C16.5985 14.6706 17.14 13.3632 17.14 12C17.14 10.6368 16.5985 9.32941 15.6345 8.36547C14.6706 7.40153 13.3632 6.86 12 6.86ZM18.6353 6.76667C18.6353 7.0889 18.5073 7.39794 18.2795 7.6258C18.0516 7.85366 17.7426 7.98167 17.4204 7.98167C17.0981 7.98167 16.7891 7.85366 16.5612 7.6258C16.3334 7.39794 16.2053 7.0889 16.2053 6.76667C16.2053 6.44443 16.3334 6.13539 16.5612 5.90753C16.7891 5.67968 17.0981 5.55167 17.4204 5.55167C17.7426 5.55167 18.0516 5.67968 18.2795 5.90753C18.5073 6.13539 18.6353 6.44443 18.6353 6.76667Z"/>
		</symbol>
		<symbol viewBox="0 0 24 24" id="linkedin">
			<path d="M22 3.47059V20.5294C22 20.9194 21.8451 21.2935 21.5693 21.5693C21.2935 21.8451 20.9194 22 20.5294 22H3.47059C3.08056 22 2.70651 21.8451 2.43073 21.5693C2.15494 21.2935 2 20.9194 2 20.5294V3.47059C2 3.08056 2.15494 2.70651 2.43073 2.43073C2.70651 2.15494 3.08056 2 3.47059 2H20.5294C20.9194 2 21.2935 2.15494 21.5693 2.43073C21.8451 2.70651 22 3.08056 22 3.47059ZM7.88235 9.64706H4.94118V19.0588H7.88235V9.64706ZM8.14706 6.41177C8.14861 6.18929 8.10632 5.96869 8.02261 5.76255C7.93891 5.55642 7.81542 5.36879 7.65919 5.21039C7.50297 5.05198 7.31708 4.92589 7.11213 4.83933C6.90718 4.75277 6.68718 4.70742 6.46471 4.70588H6.41177C5.95934 4.70588 5.52544 4.88561 5.20552 5.20552C4.88561 5.52544 4.70588 5.95934 4.70588 6.41177C4.70588 6.86419 4.88561 7.29809 5.20552 7.61801C5.52544 7.93792 5.95934 8.11765 6.41177 8.11765C6.63426 8.12312 6.85565 8.0847 7.06328 8.00458C7.27092 7.92447 7.46074 7.80422 7.62189 7.65072C7.78304 7.49722 7.91237 7.31346 8.00248 7.10996C8.09259 6.90646 8.14172 6.6872 8.14706 6.46471V6.41177ZM19.0588 13.3412C19.0588 10.5118 17.2588 9.41177 15.4706 9.41177C14.8851 9.38245 14.3021 9.50715 13.7799 9.77345C13.2576 10.0397 12.8143 10.4383 12.4941 10.9294H12.4118V9.64706H9.64706V19.0588H12.5882V14.0529C12.5457 13.5403 12.7072 13.0315 13.0376 12.6372C13.3681 12.2429 13.8407 11.9949 14.3529 11.9471H14.4647C15.4 11.9471 16.0941 12.5353 16.0941 14.0176V19.0588H19.0353L19.0588 13.3412Z"/>
		</symbol>
		<symbol viewBox="0 0 24 24" id="pinterest">
			<path d="M2 12C2 16.2692 4.67583 19.9142 8.44167 21.3483C8.35 20.5675 8.2525 19.28 8.4625 18.3767C8.64333 17.6 9.63 13.4283 9.63 13.4283C9.63 13.4283 9.3325 12.8325 9.3325 11.95C9.3325 10.5667 10.1342 9.53333 11.1333 9.53333C11.9833 9.53333 12.3933 10.1708 12.3933 10.935C12.3933 11.7892 11.8492 13.0658 11.5683 14.25C11.3342 15.2408 12.0658 16.0492 13.0425 16.0492C14.8117 16.0492 16.1725 14.1833 16.1725 11.49C16.1725 9.10583 14.4592 7.44 12.0133 7.44C9.18167 7.44 7.51917 9.56417 7.51917 11.76C7.51917 12.6158 7.84833 13.5325 8.26 14.0317C8.2951 14.0694 8.3199 14.1155 8.33201 14.1655C8.34412 14.2156 8.34314 14.2679 8.32917 14.3175C8.25333 14.6325 8.085 15.3083 8.0525 15.4467C8.00833 15.6283 7.90833 15.6675 7.71917 15.5792C6.47583 15.0008 5.69917 13.1833 5.69917 11.7233C5.69917 8.5825 7.98 5.69917 12.2758 5.69917C15.7292 5.69917 18.4133 8.16 18.4133 11.4483C18.4133 14.8792 16.2508 17.6408 13.2475 17.6408C12.2383 17.6408 11.2908 17.1158 10.9658 16.4967C10.9658 16.4967 10.4667 18.3983 10.3458 18.8633C10.1108 19.7667 9.45917 20.91 9.055 21.5592C9.98667 21.8458 10.975 22 12 22C17.5225 22 22 17.5225 22 12C22 6.4775 17.5225 2 12 2C6.4775 2 2 6.4775 2 12Z"/>
		</symbol>
		<symbol viewBox="0 0 1200 1227" id="twitterx">
			<path d="M714.163 519.284L1160.89 0H1055.03L667.137 450.887L357.328 0H0L468.492 681.821L0 1226.37H105.866L515.491 750.218L842.672 1226.37H1200L714.137 519.284H714.163ZM569.165 687.828L521.697 619.934L144.011 79.6944H306.615L611.412 515.685L658.88 583.579L1055.08 1150.3H892.476L569.165 687.854V687.828Z"/>
		</symbol>
		<symbol viewBox="0 0 24 24" id="youtube">
			<path fill-rule="evenodd" clip-rule="evenodd" d="M20.5949 4.45999C21.5421 4.71353 22.2865 5.45785 22.54 6.40501C22.9982 8.12002 23 11.7004 23 11.7004C23 11.7004 23 15.2807 22.54 16.9957C22.2865 17.9429 21.5421 18.6872 20.5949 18.9407C18.88 19.4007 12 19.4007 12 19.4007C12 19.4007 5.12002 19.4007 3.405 18.9407C2.45785 18.6872 1.71353 17.9429 1.45999 16.9957C1 15.2807 1 11.7004 1 11.7004C1 11.7004 1 8.12002 1.45999 6.40501C1.71353 5.45785 2.45785 4.71353 3.405 4.45999C5.12002 4 12 4 12 4C12 4 18.88 4 20.5949 4.45999ZM15.5134 11.7007L9.79788 15.0003V8.40101L15.5134 11.7007Z"/>
		</symbol>
	</defs>
</svg>