<svg xmlns="http://www.w3.org/2000/svg" xmlns:xlink="http://www.w3.org/1999/xlink">
	<defs>
		<symbol viewBox="0 0 50 50" id="search">
			<path
				d="M 21 3 C 11.621094 3 4 10.621094 4 20 C 4 29.378906 11.621094 37 21 37 C 24.710938 37 28.140625 35.804688 30.9375 33.78125 L 44.09375 46.90625 L 46.90625 44.09375 L 33.90625 31.0625 C 36.460938 28.085938 38 24.222656 38 20 C 38 10.621094 30.378906 3 21 3 Z M 21 5 C 29.296875 5 36 11.703125 36 20 C 36 28.296875 29.296875 35 21 35 C 12.703125 35 6 28.296875 6 20 C 6 11.703125 12.703125 5 21 5 Z" />
		</symbol>
		<symbol viewBox="0 0 56 56" id="cart">
			<path d="M .9532 6.7188 C .9532 7.6797 1.7501 8.5000 2.6876 8.5000 L 10.6094 8.5000 L 14.3594 34.2344 C 14.8516 37.5625 16.6094 39.6485 20.0079 39.6485 L 47.3596 39.6485 C 48.2735 39.6485 49.0703 38.8985 49.0703 37.8907 C 49.0703 36.8829 48.2735 36.1328 47.3596 36.1328 L 20.4063 36.1328 C 19.0704 36.1328 18.2501 35.1953 18.0391 33.7656 L 17.6641 31.3047 L 47.4062 31.3047 C 50.8281 31.3047 52.5859 29.1953 53.0783 25.8438 L 54.9532 13.4453 C 55.0003 13.1407 55.0468 12.7656 55.0468 12.5547 C 55.0468 11.4297 54.2030 10.6563 52.9142 10.6563 L 14.6641 10.6563 L 14.1954 7.6797 C 13.9610 5.8750 13.3048 4.9609 10.9141 4.9609 L 2.6876 4.9609 C 1.7501 4.9609 .9532 5.7813 .9532 6.7188 Z M 18.0391 47.2422 C 18.0391 49.375 19.7266 51.0391 21.8594 51.0391 C 23.9688 51.0391 25.6563 49.375 25.6563 47.2422 C 25.6563 45.1328 23.9688 43.4453 21.8594 43.4453 C 19.7266 43.4453 18.0391 45.1328 18.0391 47.2422 Z M 39.9532 47.2422 C 39.9532 49.375 41.6641 51.0391 43.7735 51.0391 C 45.9062 51.0391 47.5939 49.375 47.5939 47.2422 C 47.5939 45.1328 45.9062 43.4453 43.7735 43.4453 C 41.6641 43.4453 39.9532 45.1328 39.9532 47.2422 Z"/>
		</symbol>
		<symbol viewBox="0 0 24 24" id="right-arrow">
			<path d="M6 12H18M18 12L13 7M18 12L13 17" />
		</symbol>
		<symbol viewBox="0 0 24 24" id="facebook">
			<path d="M22 12C22 6.47714 17.5229 1.99999 12 1.99999C6.47715 1.99999 2 6.47714 2 12C2 16.9913 5.65686 21.1283 10.4375 21.8785V14.8906H7.89844V12H10.4375V9.79687C10.4375 7.29062 11.9304 5.90624 14.2146 5.90624C15.3087 5.90624 16.4531 6.10155 16.4531 6.10155V8.56249H15.1921C13.9499 8.56249 13.5625 9.33333 13.5625 10.1242V12H16.3359L15.8926 14.8906H13.5625V21.8785C18.3431 21.1283 22 16.9913 22 12Z"/>
		</symbol>
		<symbol viewBox="0 0 24 24" id="instagram">
			<path fill-rule="evenodd" clip-rule="evenodd" d="M12 2C9.284 2 8.944 2.01133 7.87733 2.06C6.81267 2.10867 6.08533 2.278 5.44933 2.52533C4.78267 2.776 4.178 3.16933 3.678 3.67867C3.16948 4.17809 2.77591 4.78233 2.52467 5.44933C2.27867 6.08533 2.10867 6.81333 2.06 7.878C2.012 8.944 2 9.28333 2 12C2 14.7167 2.01133 15.056 2.06 16.1227C2.10867 17.1873 2.278 17.9147 2.52533 18.5507C2.776 19.2173 3.16933 19.822 3.67867 20.322C4.1781 20.8305 4.78234 21.2241 5.44933 21.4753C6.08533 21.722 6.81267 21.8913 7.87733 21.94C8.944 21.9887 9.284 22 12 22C14.716 22 15.056 21.9887 16.1227 21.94C17.1873 21.8913 17.9147 21.722 18.5507 21.4747C19.2173 21.224 19.822 20.8307 20.322 20.3213C20.8305 19.8219 21.2241 19.2177 21.4753 18.5507C21.722 17.9147 21.8913 17.1873 21.94 16.1227C21.9887 15.056 22 14.716 22 12C22 9.284 21.9887 8.944 21.94 7.87733C21.8913 6.81267 21.722 6.08533 21.4747 5.44933C21.2236 4.78204 20.83 4.17755 20.3213 3.678C19.8219 3.16948 19.2177 2.77591 18.5507 2.52467C17.9147 2.27867 17.1867 2.10867 16.122 2.06C15.056 2.012 14.7167 2 12 2ZM12 3.802C14.67 3.802 14.9867 3.812 16.0413 3.86C17.016 3.90467 17.5453 4.06667 17.898 4.20467C18.3647 4.38533 18.698 4.60267 19.048 4.952C19.398 5.302 19.6147 5.63533 19.7953 6.102C19.9327 6.45467 20.0953 6.984 20.14 7.95867C20.188 9.01333 20.198 9.33 20.198 12C20.198 14.67 20.188 14.9867 20.14 16.0413C20.0953 17.016 19.9333 17.5453 19.7953 17.898C19.6353 18.3324 19.3799 18.7253 19.048 19.048C18.7254 19.38 18.3324 19.6354 17.898 19.7953C17.5453 19.9327 17.016 20.0953 16.0413 20.14C14.9867 20.188 14.6707 20.198 12 20.198C9.32933 20.198 9.01333 20.188 7.95867 20.14C6.984 20.0953 6.45467 19.9333 6.102 19.7953C5.66764 19.6353 5.27467 19.3799 4.952 19.048C4.62012 18.7253 4.36475 18.3323 4.20467 17.898C4.06733 17.5453 3.90467 17.016 3.86 16.0413C3.812 14.9867 3.802 14.67 3.802 12C3.802 9.33 3.812 9.01333 3.86 7.95867C3.90467 6.984 4.06667 6.45467 4.20467 6.102C4.38533 5.63533 4.60267 5.302 4.952 4.952C5.27463 4.62003 5.66761 4.36465 6.102 4.20467C6.45467 4.06733 6.984 3.90467 7.95867 3.86C9.01333 3.812 9.33 3.802 12 3.802Z"/>
			<path fill-rule="evenodd" clip-rule="evenodd" d="M12 15.3367C11.5618 15.3367 11.128 15.2504 10.7231 15.0827C10.3183 14.915 9.95047 14.6692 9.64064 14.3594C9.3308 14.0495 9.08502 13.6817 8.91734 13.2769C8.74965 12.8721 8.66335 12.4382 8.66335 12C8.66335 11.5618 8.74965 11.1279 8.91734 10.7231C9.08502 10.3183 9.3308 9.95046 9.64064 9.64062C9.95047 9.33078 10.3183 9.08501 10.7231 8.91732C11.128 8.74964 11.5618 8.66333 12 8.66333C12.885 8.66333 13.7336 9.01487 14.3594 9.64062C14.9851 10.2664 15.3367 11.1151 15.3367 12C15.3367 12.8849 14.9851 13.7336 14.3594 14.3594C13.7336 14.9851 12.885 15.3367 12 15.3367ZM12 6.86C10.6368 6.86 9.32942 7.40153 8.36549 8.36547C7.40155 9.32941 6.86002 10.6368 6.86002 12C6.86002 13.3632 7.40155 14.6706 8.36549 15.6345C9.32942 16.5985 10.6368 17.14 12 17.14C13.3632 17.14 14.6706 16.5985 15.6345 15.6345C16.5985 14.6706 17.14 13.3632 17.14 12C17.14 10.6368 16.5985 9.32941 15.6345 8.36547C14.6706 7.40153 13.3632 6.86 12 6.86ZM18.6353 6.76667C18.6353 7.0889 18.5073 7.39794 18.2795 7.6258C18.0516 7.85366 17.7426 7.98167 17.4204 7.98167C17.0981 7.98167 16.7891 7.85366 16.5612 7.6258C16.3334 7.39794 16.2053 7.0889 16.2053 6.76667C16.2053 6.44443 16.3334 6.13539 16.5612 5.90753C16.7891 5.67968 17.0981 5.55167 17.4204 5.55167C17.7426 5.55167 18.0516 5.67968 18.2795 5.90753C18.5073 6.13539 18.6353 6.44443 18.6353 6.76667Z"/>
		</symbol>
		<symbol viewBox="0 0 24 24" id="linkedin">
			<path d="M22 3.47059V20.5294C22 20.9194 21.8451 21.2935 21.5693 21.5693C21.2935 21.8451 20.9194 22 20.5294 22H3.47059C3.08056 22 2.70651 21.8451 2.43073 21.5693C2.15494 21.2935 2 20.9194 2 20.5294V3.47059C2 3.08056 2.15494 2.70651 2.43073 2.43073C2.70651 2.15494 3.08056 2 3.47059 2H20.5294C20.9194 2 21.2935 2.15494 21.5693 2.43073C21.8451 2.70651 22 3.08056 22 3.47059ZM7.88235 9.64706H4.94118V19.0588H7.88235V9.64706ZM8.14706 6.41177C8.14861 6.18929 8.10632 5.96869 8.02261 5.76255C7.93891 5.55642 7.81542 5.36879 7.65919 5.21039C7.50297 5.05198 7.31708 4.92589 7.11213 4.83933C6.90718 4.75277 6.68718 4.70742 6.46471 4.70588H6.41177C5.95934 4.70588 5.52544 4.88561 5.20552 5.20552C4.88561 5.52544 4.70588 5.95934 4.70588 6.41177C4.70588 6.86419 4.88561 7.29809 5.20552 7.61801C5.52544 7.93792 5.95934 8.11765 6.41177 8.11765C6.63426 8.12312 6.85565 8.0847 7.06328 8.00458C7.27092 7.92447 7.46074 7.80422 7.62189 7.65072C7.78304 7.49722 7.91237 7.31346 8.00248 7.10996C8.09259 6.90646 8.14172 6.6872 8.14706 6.46471V6.41177ZM19.0588 13.3412C19.0588 10.5118 17.2588 9.41177 15.4706 9.41177C14.8851 9.38245 14.3021 9.50715 13.7799 9.77345C13.2576 10.0397 12.8143 10.4383 12.4941 10.9294H12.4118V9.64706H9.64706V19.0588H12.5882V14.0529C12.5457 13.5403 12.7072 13.0315 13.0376 12.6372C13.3681 12.2429 13.8407 11.9949 14.3529 11.9471H14.4647C15.4 11.9471 16.0941 12.5353 16.0941 14.0176V19.0588H19.0353L19.0588 13.3412Z"/>
		</symbol>
		<symbol viewBox="0 0 24 24" id="pinterest">
			<path d="M2 12C2 16.2692 4.67583 19.9142 8.44167 21.3483C8.35 20.5675 8.2525 19.28 8.4625 18.3767C8.64333 17.6 9.63 13.4283 9.63 13.4283C9.63 13.4283 9.3325 12.8325 9.3325 11.95C9.3325 10.5667 10.1342 9.53333 11.1333 9.53333C11.9833 9.53333 12.3933 10.1708 12.3933 10.935C12.3933 11.7892 11.8492 13.0658 11.5683 14.25C11.3342 15.2408 12.0658 16.0492 13.0425 16.0492C14.8117 16.0492 16.1725 14.1833 16.1725 11.49C16.1725 9.10583 14.4592 7.44 12.0133 7.44C9.18167 7.44 7.51917 9.56417 7.51917 11.76C7.51917 12.6158 7.84833 13.5325 8.26 14.0317C8.2951 14.0694 8.3199 14.1155 8.33201 14.1655C8.34412 14.2156 8.34314 14.2679 8.32917 14.3175C8.25333 14.6325 8.085 15.3083 8.0525 15.4467C8.00833 15.6283 7.90833 15.6675 7.71917 15.5792C6.47583 15.0008 5.69917 13.1833 5.69917 11.7233C5.69917 8.5825 7.98 5.69917 12.2758 5.69917C15.7292 5.69917 18.4133 8.16 18.4133 11.4483C18.4133 14.8792 16.2508 17.6408 13.2475 17.6408C12.2383 17.6408 11.2908 17.1158 10.9658 16.4967C10.9658 16.4967 10.4667 18.3983 10.3458 18.8633C10.1108 19.7667 9.45917 20.91 9.055 21.5592C9.98667 21.8458 10.975 22 12 22C17.5225 22 22 17.5225 22 12C22 6.4775 17.5225 2 12 2C6.4775 2 2 6.4775 2 12Z"/>
		</symbol>
		<symbol viewBox="0 0 1200 1227" id="twitterx">
			<path d="M714.163 519.284L1160.89 0H1055.03L667.137 450.887L357.328 0H0L468.492 681.821L0 1226.37H105.866L515.491 750.218L842.672 1226.37H1200L714.137 519.284H714.163ZM569.165 687.828L521.697 619.934L144.011 79.6944H306.615L611.412 515.685L658.88 583.579L1055.08 1150.3H892.476L569.165 687.854V687.828Z"/>
		</symbol>
		<symbol viewBox="0 0 24 24" id="youtube">
			<path fill-rule="evenodd" clip-rule="evenodd" d="M20.5949 4.45999C21.5421 4.71353 22.2865 5.45785 22.54 6.40501C22.9982 8.12002 23 11.7004 23 11.7004C23 11.7004 23 15.2807 22.54 16.9957C22.2865 17.9429 21.5421 18.6872 20.5949 18.9407C18.88 19.4007 12 19.4007 12 19.4007C12 19.4007 5.12002 19.4007 3.405 18.9407C2.45785 18.6872 1.71353 17.9429 1.45999 16.9957C1 15.2807 1 11.7004 1 11.7004C1 11.7004 1 8.12002 1.45999 6.40501C1.71353 5.45785 2.45785 4.71353 3.405 4.45999C5.12002 4 12 4 12 4C12 4 18.88 4 20.5949 4.45999ZM15.5134 11.7007L9.79788 15.0003V8.40101L15.5134 11.7007Z"/>
		</symbol>
	</defs>
</svg>